<mxfile host="app.diagrams.net" agent="Mozilla/5.0 (Windows NT 10.0; Win64; x64) AppleWebKit/537.36 (KHTML, like Gecko) Chrome/131.0.0.0 Safari/537.36" version="25.0.3">
  <diagram name="Data Model" id="VtMoB7wPsPaTvNwVxy6d">
    <mxGraphModel dx="1495" dy="398" grid="0" gridSize="10" guides="1" tooltips="1" connect="1" arrows="1" fold="1" page="0" pageScale="1" pageWidth="850" pageHeight="1100" math="0" shadow="0">
      <root>
        <mxCell id="0" />
        <mxCell id="1" parent="0" />
        <mxCell id="jPuo404J30Q0AHn1eAiG-46" value="enum(TxStatus)&#xa;&#xa;PENDING&#xa;APPROVED&#xa;DECLINED&#xa;FAILED" style="rounded=0;whiteSpace=wrap;html=1;fillColor=none;strokeColor=#9673a6;fontSize=12;" vertex="1" parent="1">
          <mxGeometry x="496" y="1350" width="110" height="108" as="geometry" />
        </mxCell>
        <mxCell id="jPuo404J30Q0AHn1eAiG-47" value="enum(VerificationStatus)&#xa;&#xa;UNVERIFIED&#xa;PENDING&#xa;APPROVED&#xa;REJECTED" style="rounded=0;whiteSpace=wrap;html=1;fillColor=none;strokeColor=#9673a6;fontSize=12;" vertex="1" parent="1">
          <mxGeometry x="297" y="1350" width="147" height="108" as="geometry" />
        </mxCell>
        <mxCell id="jPuo404J30Q0AHn1eAiG-48" style="endArrow=none;endFill=0;edgeStyle=orthogonalEdgeStyle;exitX=1;exitY=0.5;exitDx=0;exitDy=0;entryX=0;entryY=0.5;entryDx=0;entryDy=0;fillColor=#dae8fc;strokeColor=#6c8ebf;" edge="1" parent="1" source="jPuo404J30Q0AHn1eAiG-83" target="jPuo404J30Q0AHn1eAiG-95">
          <mxGeometry relative="1" as="geometry">
            <mxPoint x="300" y="720" as="sourcePoint" />
            <mxPoint x="350" y="720" as="targetPoint" />
            <Array as="points">
              <mxPoint x="256" y="1213" />
              <mxPoint x="389" y="1213" />
              <mxPoint x="389" y="958" />
            </Array>
          </mxGeometry>
        </mxCell>
        <mxCell id="jPuo404J30Q0AHn1eAiG-49" value="1" style="text;strokeColor=none;fontSize=12;fillColor=none;" vertex="1" parent="jPuo404J30Q0AHn1eAiG-48">
          <mxGeometry x="0.25" y="0.5" relative="1" as="geometry">
            <mxPoint x="-69" y="213" as="offset" />
          </mxGeometry>
        </mxCell>
        <mxCell id="jPuo404J30Q0AHn1eAiG-50" value="N" style="text;strokeColor=none;fontSize=12;fillColor=none;" vertex="1" parent="jPuo404J30Q0AHn1eAiG-48">
          <mxGeometry x="0.75" y="0.5" relative="1" as="geometry">
            <mxPoint x="-46" y="8" as="offset" />
          </mxGeometry>
        </mxCell>
        <mxCell id="jPuo404J30Q0AHn1eAiG-51" style="endArrow=none;endFill=0;edgeStyle=orthogonalEdgeStyle;exitX=1;exitY=0.5;exitDx=0;exitDy=0;entryX=0;entryY=0.5;entryDx=0;entryDy=0;fillColor=#dae8fc;strokeColor=#6c8ebf;" edge="1" parent="1" source="jPuo404J30Q0AHn1eAiG-83" target="jPuo404J30Q0AHn1eAiG-94">
          <mxGeometry relative="1" as="geometry">
            <mxPoint x="300" y="790" as="sourcePoint" />
            <mxPoint x="350" y="790" as="targetPoint" />
            <Array as="points">
              <mxPoint x="256" y="1213" />
              <mxPoint x="332" y="1213" />
              <mxPoint x="332" y="928" />
            </Array>
          </mxGeometry>
        </mxCell>
        <mxCell id="jPuo404J30Q0AHn1eAiG-52" value="1" style="text;strokeColor=none;fontSize=12;fillColor=none;" vertex="1" parent="jPuo404J30Q0AHn1eAiG-51">
          <mxGeometry x="0.25" y="0.5" relative="1" as="geometry">
            <mxPoint x="8" y="243" as="offset" />
          </mxGeometry>
        </mxCell>
        <mxCell id="jPuo404J30Q0AHn1eAiG-53" value="N" style="text;strokeColor=none;fontSize=12;fillColor=none;" vertex="1" parent="jPuo404J30Q0AHn1eAiG-51">
          <mxGeometry x="0.75" y="0.5" relative="1" as="geometry">
            <mxPoint x="-42" y="3" as="offset" />
          </mxGeometry>
        </mxCell>
        <mxCell id="jPuo404J30Q0AHn1eAiG-61" style="endArrow=none;endFill=0;edgeStyle=orthogonalEdgeStyle;entryX=1;entryY=0.5;entryDx=0;entryDy=0;fillColor=#e1d5e7;strokeColor=#9673a6;exitX=0;exitY=0.5;exitDx=0;exitDy=0;" edge="1" parent="1" source="jPuo404J30Q0AHn1eAiG-93" target="jPuo404J30Q0AHn1eAiG-134">
          <mxGeometry relative="1" as="geometry">
            <mxPoint x="631" y="894" as="sourcePoint" />
            <mxPoint x="332" y="1586" as="targetPoint" />
            <Array as="points">
              <mxPoint x="670" y="896" />
              <mxPoint x="598" y="896" />
              <mxPoint x="598" y="740" />
            </Array>
          </mxGeometry>
        </mxCell>
        <mxCell id="jPuo404J30Q0AHn1eAiG-62" value="1" style="text;strokeColor=none;fontSize=12;fillColor=none;" vertex="1" parent="jPuo404J30Q0AHn1eAiG-61">
          <mxGeometry x="0.5" y="0.25" relative="1" as="geometry">
            <mxPoint x="-26" y="1" as="offset" />
          </mxGeometry>
        </mxCell>
        <mxCell id="jPuo404J30Q0AHn1eAiG-63" value="N" style="text;strokeColor=none;fontSize=12;fillColor=none;" vertex="1" parent="jPuo404J30Q0AHn1eAiG-61">
          <mxGeometry x="0.5" y="0.75" relative="1" as="geometry">
            <mxPoint x="14" y="65" as="offset" />
          </mxGeometry>
        </mxCell>
        <mxCell id="jPuo404J30Q0AHn1eAiG-64" style="endArrow=none;endFill=0;edgeStyle=orthogonalEdgeStyle;exitX=0;exitY=0.5;exitDx=0;exitDy=0;entryX=1;entryY=0.5;entryDx=0;entryDy=0;fillColor=#d5e8d4;strokeColor=#82b366;" edge="1" parent="1" source="jPuo404J30Q0AHn1eAiG-93" target="jPuo404J30Q0AHn1eAiG-104">
          <mxGeometry relative="1" as="geometry">
            <mxPoint x="450" y="880" as="sourcePoint" />
            <mxPoint x="450" y="1000" as="targetPoint" />
          </mxGeometry>
        </mxCell>
        <mxCell id="jPuo404J30Q0AHn1eAiG-65" value="1" style="text;strokeColor=none;fontSize=12;fillColor=none;" vertex="1" parent="jPuo404J30Q0AHn1eAiG-64">
          <mxGeometry x="0.5" y="0.25" relative="1" as="geometry">
            <mxPoint x="178" y="-27" as="offset" />
          </mxGeometry>
        </mxCell>
        <mxCell id="jPuo404J30Q0AHn1eAiG-66" value="N" style="text;strokeColor=none;fontSize=12;fillColor=none;" vertex="1" parent="jPuo404J30Q0AHn1eAiG-64">
          <mxGeometry x="0.5" y="0.75" relative="1" as="geometry">
            <mxPoint x="-82" y="-28" as="offset" />
          </mxGeometry>
        </mxCell>
        <mxCell id="jPuo404J30Q0AHn1eAiG-67" style="endArrow=none;endFill=0;edgeStyle=orthogonalEdgeStyle;exitX=1;exitY=0.5;exitDx=0;exitDy=0;fillColor=#f8cecc;strokeColor=#b85450;entryX=0;entryY=0.5;entryDx=0;entryDy=0;" edge="1" parent="1" target="jPuo404J30Q0AHn1eAiG-115">
          <mxGeometry relative="1" as="geometry">
            <mxPoint x="256" y="1216" as="sourcePoint" />
            <mxPoint x="549" y="1317" as="targetPoint" />
            <Array as="points">
              <mxPoint x="434" y="1216" />
              <mxPoint x="434" y="1275" />
            </Array>
          </mxGeometry>
        </mxCell>
        <mxCell id="jPuo404J30Q0AHn1eAiG-68" value="1" style="text;strokeColor=none;fontSize=12;fillColor=none;" vertex="1" parent="jPuo404J30Q0AHn1eAiG-67">
          <mxGeometry x="0.5" y="0.25" relative="1" as="geometry">
            <mxPoint x="-137" y="-37" as="offset" />
          </mxGeometry>
        </mxCell>
        <mxCell id="jPuo404J30Q0AHn1eAiG-69" value="N" style="text;strokeColor=none;fontSize=12;fillColor=none;" vertex="1" parent="jPuo404J30Q0AHn1eAiG-67">
          <mxGeometry x="0.5" y="0.75" relative="1" as="geometry">
            <mxPoint x="63" y="9" as="offset" />
          </mxGeometry>
        </mxCell>
        <mxCell id="jPuo404J30Q0AHn1eAiG-70" style="endArrow=none;endFill=0;edgeStyle=orthogonalEdgeStyle;entryX=0;entryY=0.5;entryDx=0;entryDy=0;exitX=0;exitY=0.5;exitDx=0;exitDy=0;fillColor=#f8cecc;strokeColor=#b85450;" edge="1" parent="1" source="jPuo404J30Q0AHn1eAiG-93" target="jPuo404J30Q0AHn1eAiG-116">
          <mxGeometry relative="1" as="geometry">
            <mxPoint x="530" y="880" as="sourcePoint" />
            <mxPoint x="690" y="1000" as="targetPoint" />
            <Array as="points">
              <mxPoint x="670" y="900" />
              <mxPoint x="605" y="900" />
              <mxPoint x="605" y="1245" />
            </Array>
          </mxGeometry>
        </mxCell>
        <mxCell id="jPuo404J30Q0AHn1eAiG-71" value="0..1" style="text;strokeColor=none;fontSize=12;fillColor=none;" vertex="1" parent="jPuo404J30Q0AHn1eAiG-70">
          <mxGeometry x="0.3" y="0.5" relative="1" as="geometry">
            <mxPoint x="7" y="-133" as="offset" />
          </mxGeometry>
        </mxCell>
        <mxCell id="jPuo404J30Q0AHn1eAiG-72" value="N" style="text;strokeColor=none;fontSize=12;fillColor=none;" vertex="1" parent="jPuo404J30Q0AHn1eAiG-70">
          <mxGeometry x="0.7" y="0.5" relative="1" as="geometry">
            <mxPoint x="10" y="-53" as="offset" />
          </mxGeometry>
        </mxCell>
        <mxCell id="jPuo404J30Q0AHn1eAiG-82" value="&lt;span style=&quot;font-size: 14px; font-weight: 700;&quot;&gt;users&lt;/span&gt;" style="swimlane;fontStyle=0;childLayout=stackLayout;horizontal=1;startSize=30;horizontalStack=0;resizeParent=1;resizeParentMax=0;resizeLast=0;collapsible=1;marginBottom=0;whiteSpace=wrap;html=1;" vertex="1" parent="1">
          <mxGeometry x="76" y="1170" width="180" height="240" as="geometry" />
        </mxCell>
        <mxCell id="jPuo404J30Q0AHn1eAiG-83" value="PK |&amp;nbsp;&lt;span style=&quot;text-align: center;&quot;&gt;user_id&lt;/span&gt;" style="text;strokeColor=none;fillColor=none;align=left;verticalAlign=middle;spacingLeft=4;spacingRight=4;overflow=hidden;points=[[0,0.5],[1,0.5]];portConstraint=eastwest;rotatable=0;whiteSpace=wrap;html=1;" vertex="1" parent="jPuo404J30Q0AHn1eAiG-82">
          <mxGeometry y="30" width="180" height="30" as="geometry" />
        </mxCell>
        <mxCell id="jPuo404J30Q0AHn1eAiG-84" value="&lt;span style=&quot;text-align: center;&quot;&gt;&amp;nbsp; &amp;nbsp; &amp;nbsp; email&lt;/span&gt;" style="text;strokeColor=none;fillColor=none;align=left;verticalAlign=middle;spacingLeft=4;spacingRight=4;overflow=hidden;points=[[0,0.5],[1,0.5]];portConstraint=eastwest;rotatable=0;whiteSpace=wrap;html=1;" vertex="1" parent="jPuo404J30Q0AHn1eAiG-82">
          <mxGeometry y="60" width="180" height="30" as="geometry" />
        </mxCell>
        <mxCell id="jPuo404J30Q0AHn1eAiG-86" value="&amp;nbsp; &amp;nbsp; &amp;nbsp;&amp;nbsp;&lt;span style=&quot;text-align: center;&quot;&gt;phone_number&lt;/span&gt;" style="text;strokeColor=none;fillColor=none;align=left;verticalAlign=middle;spacingLeft=4;spacingRight=4;overflow=hidden;points=[[0,0.5],[1,0.5]];portConstraint=eastwest;rotatable=0;whiteSpace=wrap;html=1;" vertex="1" parent="jPuo404J30Q0AHn1eAiG-82">
          <mxGeometry y="90" width="180" height="30" as="geometry" />
        </mxCell>
        <mxCell id="jPuo404J30Q0AHn1eAiG-87" value="&amp;nbsp; &amp;nbsp; &amp;nbsp;&amp;nbsp;&lt;span style=&quot;text-align: center;&quot;&gt;full_name&lt;/span&gt;" style="text;strokeColor=none;fillColor=none;align=left;verticalAlign=middle;spacingLeft=4;spacingRight=4;overflow=hidden;points=[[0,0.5],[1,0.5]];portConstraint=eastwest;rotatable=0;whiteSpace=wrap;html=1;" vertex="1" parent="jPuo404J30Q0AHn1eAiG-82">
          <mxGeometry y="120" width="180" height="30" as="geometry" />
        </mxCell>
        <mxCell id="jPuo404J30Q0AHn1eAiG-88" value="&amp;nbsp; &amp;nbsp; &amp;nbsp;&amp;nbsp;&lt;span style=&quot;text-align: center;&quot;&gt;verification_status (enum)&lt;/span&gt;" style="text;strokeColor=none;fillColor=none;align=left;verticalAlign=middle;spacingLeft=4;spacingRight=4;overflow=hidden;points=[[0,0.5],[1,0.5]];portConstraint=eastwest;rotatable=0;whiteSpace=wrap;html=1;" vertex="1" parent="jPuo404J30Q0AHn1eAiG-82">
          <mxGeometry y="150" width="180" height="30" as="geometry" />
        </mxCell>
        <mxCell id="jPuo404J30Q0AHn1eAiG-89" value="&amp;nbsp; &amp;nbsp; &amp;nbsp;&amp;nbsp;&lt;span style=&quot;text-align: center;&quot;&gt;created_at&lt;/span&gt;" style="text;strokeColor=none;fillColor=none;align=left;verticalAlign=middle;spacingLeft=4;spacingRight=4;overflow=hidden;points=[[0,0.5],[1,0.5]];portConstraint=eastwest;rotatable=0;whiteSpace=wrap;html=1;" vertex="1" parent="jPuo404J30Q0AHn1eAiG-82">
          <mxGeometry y="180" width="180" height="30" as="geometry" />
        </mxCell>
        <mxCell id="jPuo404J30Q0AHn1eAiG-91" value="&lt;span style=&quot;text-align: center;&quot;&gt;&amp;nbsp; &amp;nbsp; &amp;nbsp;&amp;nbsp;&lt;/span&gt;&lt;span style=&quot;text-align: center;&quot;&gt;updated_at&lt;/span&gt;" style="text;strokeColor=none;fillColor=none;align=left;verticalAlign=middle;spacingLeft=4;spacingRight=4;overflow=hidden;points=[[0,0.5],[1,0.5]];portConstraint=eastwest;rotatable=0;whiteSpace=wrap;html=1;" vertex="1" parent="jPuo404J30Q0AHn1eAiG-82">
          <mxGeometry y="210" width="180" height="30" as="geometry" />
        </mxCell>
        <mxCell id="jPuo404J30Q0AHn1eAiG-92" value="&lt;span style=&quot;font-size: 14px; font-weight: 700;&quot;&gt;transactions&lt;/span&gt;" style="swimlane;fontStyle=0;childLayout=stackLayout;horizontal=1;startSize=30;horizontalStack=0;resizeParent=1;resizeParentMax=0;resizeLast=0;collapsible=1;marginBottom=0;whiteSpace=wrap;html=1;" vertex="1" parent="1">
          <mxGeometry x="670" y="853" width="180" height="300" as="geometry" />
        </mxCell>
        <mxCell id="jPuo404J30Q0AHn1eAiG-93" value="PK |&amp;nbsp;&lt;span style=&quot;text-align: center;&quot;&gt;transaction_id&lt;/span&gt;" style="text;strokeColor=none;fillColor=none;align=left;verticalAlign=middle;spacingLeft=4;spacingRight=4;overflow=hidden;points=[[0,0.5],[1,0.5]];portConstraint=eastwest;rotatable=0;whiteSpace=wrap;html=1;" vertex="1" parent="jPuo404J30Q0AHn1eAiG-92">
          <mxGeometry y="30" width="180" height="30" as="geometry" />
        </mxCell>
        <mxCell id="jPuo404J30Q0AHn1eAiG-94" value="&lt;div style=&quot;text-align: center;&quot;&gt;&lt;span style=&quot;background-color: initial;&quot;&gt;FK |&amp;nbsp;&lt;/span&gt;&lt;span style=&quot;background-color: initial;&quot;&gt;from_user_id&lt;/span&gt;&lt;/div&gt;" style="text;strokeColor=none;fillColor=none;align=left;verticalAlign=middle;spacingLeft=4;spacingRight=4;overflow=hidden;points=[[0,0.5],[1,0.5]];portConstraint=eastwest;rotatable=0;whiteSpace=wrap;html=1;" vertex="1" parent="jPuo404J30Q0AHn1eAiG-92">
          <mxGeometry y="60" width="180" height="30" as="geometry" />
        </mxCell>
        <mxCell id="jPuo404J30Q0AHn1eAiG-95" value="FK |&amp;nbsp;&lt;span style=&quot;text-align: center;&quot;&gt;to_user_id&lt;/span&gt;" style="text;strokeColor=none;fillColor=none;align=left;verticalAlign=middle;spacingLeft=4;spacingRight=4;overflow=hidden;points=[[0,0.5],[1,0.5]];portConstraint=eastwest;rotatable=0;whiteSpace=wrap;html=1;" vertex="1" parent="jPuo404J30Q0AHn1eAiG-92">
          <mxGeometry y="90" width="180" height="30" as="geometry" />
        </mxCell>
        <mxCell id="jPuo404J30Q0AHn1eAiG-96" value="&amp;nbsp; &amp;nbsp; &amp;nbsp;&amp;nbsp;&lt;span style=&quot;text-align: center;&quot;&gt;amount&lt;/span&gt;" style="text;strokeColor=none;fillColor=none;align=left;verticalAlign=middle;spacingLeft=4;spacingRight=4;overflow=hidden;points=[[0,0.5],[1,0.5]];portConstraint=eastwest;rotatable=0;whiteSpace=wrap;html=1;" vertex="1" parent="jPuo404J30Q0AHn1eAiG-92">
          <mxGeometry y="120" width="180" height="30" as="geometry" />
        </mxCell>
        <mxCell id="jPuo404J30Q0AHn1eAiG-97" value="&amp;nbsp; &amp;nbsp; &amp;nbsp;&amp;nbsp;&lt;span style=&quot;text-align: center;&quot;&gt;currency&lt;/span&gt;" style="text;strokeColor=none;fillColor=none;align=left;verticalAlign=middle;spacingLeft=4;spacingRight=4;overflow=hidden;points=[[0,0.5],[1,0.5]];portConstraint=eastwest;rotatable=0;whiteSpace=wrap;html=1;" vertex="1" parent="jPuo404J30Q0AHn1eAiG-92">
          <mxGeometry y="150" width="180" height="30" as="geometry" />
        </mxCell>
        <mxCell id="jPuo404J30Q0AHn1eAiG-99" value="&lt;span style=&quot;text-align: center;&quot;&gt;&amp;nbsp; &amp;nbsp; &amp;nbsp;&amp;nbsp;&lt;/span&gt;&lt;span style=&quot;text-align: center;&quot;&gt;status (enum)&lt;/span&gt;" style="text;strokeColor=none;fillColor=none;align=left;verticalAlign=middle;spacingLeft=4;spacingRight=4;overflow=hidden;points=[[0,0.5],[1,0.5]];portConstraint=eastwest;rotatable=0;whiteSpace=wrap;html=1;" vertex="1" parent="jPuo404J30Q0AHn1eAiG-92">
          <mxGeometry y="180" width="180" height="30" as="geometry" />
        </mxCell>
        <mxCell id="jPuo404J30Q0AHn1eAiG-101" value="&amp;nbsp; &amp;nbsp; &amp;nbsp;&amp;nbsp;&lt;span style=&quot;text-align: center;&quot;&gt;note&lt;/span&gt;" style="text;strokeColor=none;fillColor=none;align=left;verticalAlign=middle;spacingLeft=4;spacingRight=4;overflow=hidden;points=[[0,0.5],[1,0.5]];portConstraint=eastwest;rotatable=0;whiteSpace=wrap;html=1;" vertex="1" parent="jPuo404J30Q0AHn1eAiG-92">
          <mxGeometry y="210" width="180" height="30" as="geometry" />
        </mxCell>
        <mxCell id="jPuo404J30Q0AHn1eAiG-100" value="&amp;nbsp; &amp;nbsp; &amp;nbsp;&amp;nbsp;&lt;span style=&quot;text-align: center;&quot;&gt;created_at&lt;/span&gt;" style="text;strokeColor=none;fillColor=none;align=left;verticalAlign=middle;spacingLeft=4;spacingRight=4;overflow=hidden;points=[[0,0.5],[1,0.5]];portConstraint=eastwest;rotatable=0;whiteSpace=wrap;html=1;" vertex="1" parent="jPuo404J30Q0AHn1eAiG-92">
          <mxGeometry y="240" width="180" height="30" as="geometry" />
        </mxCell>
        <mxCell id="jPuo404J30Q0AHn1eAiG-98" value="&amp;nbsp; &amp;nbsp; &amp;nbsp;&amp;nbsp;&lt;span style=&quot;text-align: center;&quot;&gt;completed_a&lt;/span&gt;&lt;span style=&quot;text-align: center;&quot;&gt;t&lt;/span&gt;" style="text;strokeColor=none;fillColor=none;align=left;verticalAlign=middle;spacingLeft=4;spacingRight=4;overflow=hidden;points=[[0,0.5],[1,0.5]];portConstraint=eastwest;rotatable=0;whiteSpace=wrap;html=1;" vertex="1" parent="jPuo404J30Q0AHn1eAiG-92">
          <mxGeometry y="270" width="180" height="30" as="geometry" />
        </mxCell>
        <mxCell id="jPuo404J30Q0AHn1eAiG-113" value="&lt;span style=&quot;font-size: 14px; font-weight: 700;&quot;&gt;notifications&lt;/span&gt;" style="swimlane;fontStyle=0;childLayout=stackLayout;horizontal=1;startSize=30;horizontalStack=0;resizeParent=1;resizeParentMax=0;resizeLast=0;collapsible=1;marginBottom=0;whiteSpace=wrap;html=1;" vertex="1" parent="1">
          <mxGeometry x="670" y="1170" width="180" height="270" as="geometry" />
        </mxCell>
        <mxCell id="jPuo404J30Q0AHn1eAiG-114" value="PK |&amp;nbsp;&lt;span style=&quot;text-align: center;&quot;&gt;notification_id&lt;/span&gt;" style="text;strokeColor=none;fillColor=none;align=left;verticalAlign=middle;spacingLeft=4;spacingRight=4;overflow=hidden;points=[[0,0.5],[1,0.5]];portConstraint=eastwest;rotatable=0;whiteSpace=wrap;html=1;" vertex="1" parent="jPuo404J30Q0AHn1eAiG-113">
          <mxGeometry y="30" width="180" height="30" as="geometry" />
        </mxCell>
        <mxCell id="jPuo404J30Q0AHn1eAiG-116" value="FK |&amp;nbsp;&lt;span style=&quot;text-align: center;&quot;&gt;transaction_id&lt;/span&gt;" style="text;strokeColor=none;fillColor=none;align=left;verticalAlign=middle;spacingLeft=4;spacingRight=4;overflow=hidden;points=[[0,0.5],[1,0.5]];portConstraint=eastwest;rotatable=0;whiteSpace=wrap;html=1;" vertex="1" parent="jPuo404J30Q0AHn1eAiG-113">
          <mxGeometry y="60" width="180" height="30" as="geometry" />
        </mxCell>
        <mxCell id="jPuo404J30Q0AHn1eAiG-115" value="&lt;div style=&quot;text-align: center;&quot;&gt;&lt;span style=&quot;background-color: initial;&quot;&gt;FK |&amp;nbsp;&lt;/span&gt;&lt;span style=&quot;background-color: initial;&quot;&gt;user_id&lt;/span&gt;&lt;/div&gt;" style="text;strokeColor=none;fillColor=none;align=left;verticalAlign=middle;spacingLeft=4;spacingRight=4;overflow=hidden;points=[[0,0.5],[1,0.5]];portConstraint=eastwest;rotatable=0;whiteSpace=wrap;html=1;" vertex="1" parent="jPuo404J30Q0AHn1eAiG-113">
          <mxGeometry y="90" width="180" height="30" as="geometry" />
        </mxCell>
        <mxCell id="jPuo404J30Q0AHn1eAiG-117" value="&amp;nbsp; &amp;nbsp; &amp;nbsp;&amp;nbsp;&lt;span style=&quot;text-align: center;&quot;&gt;type&lt;/span&gt;" style="text;strokeColor=none;fillColor=none;align=left;verticalAlign=middle;spacingLeft=4;spacingRight=4;overflow=hidden;points=[[0,0.5],[1,0.5]];portConstraint=eastwest;rotatable=0;whiteSpace=wrap;html=1;" vertex="1" parent="jPuo404J30Q0AHn1eAiG-113">
          <mxGeometry y="120" width="180" height="30" as="geometry" />
        </mxCell>
        <mxCell id="jPuo404J30Q0AHn1eAiG-118" value="&amp;nbsp; &amp;nbsp; &amp;nbsp;&amp;nbsp;&lt;span style=&quot;text-align: center;&quot;&gt;message&lt;/span&gt;" style="text;strokeColor=none;fillColor=none;align=left;verticalAlign=middle;spacingLeft=4;spacingRight=4;overflow=hidden;points=[[0,0.5],[1,0.5]];portConstraint=eastwest;rotatable=0;whiteSpace=wrap;html=1;" vertex="1" parent="jPuo404J30Q0AHn1eAiG-113">
          <mxGeometry y="150" width="180" height="30" as="geometry" />
        </mxCell>
        <mxCell id="jPuo404J30Q0AHn1eAiG-119" value="&lt;span style=&quot;text-align: center;&quot;&gt;&amp;nbsp; &amp;nbsp; &amp;nbsp;&amp;nbsp;&lt;/span&gt;&lt;span style=&quot;text-align: center;&quot;&gt;status (enum)&lt;/span&gt;" style="text;strokeColor=none;fillColor=none;align=left;verticalAlign=middle;spacingLeft=4;spacingRight=4;overflow=hidden;points=[[0,0.5],[1,0.5]];portConstraint=eastwest;rotatable=0;whiteSpace=wrap;html=1;" vertex="1" parent="jPuo404J30Q0AHn1eAiG-113">
          <mxGeometry y="180" width="180" height="30" as="geometry" />
        </mxCell>
        <mxCell id="jPuo404J30Q0AHn1eAiG-121" value="&amp;nbsp; &amp;nbsp; &amp;nbsp;&amp;nbsp;&lt;span style=&quot;text-align: center;&quot;&gt;created_at&lt;/span&gt;" style="text;strokeColor=none;fillColor=none;align=left;verticalAlign=middle;spacingLeft=4;spacingRight=4;overflow=hidden;points=[[0,0.5],[1,0.5]];portConstraint=eastwest;rotatable=0;whiteSpace=wrap;html=1;" vertex="1" parent="jPuo404J30Q0AHn1eAiG-113">
          <mxGeometry y="210" width="180" height="30" as="geometry" />
        </mxCell>
        <mxCell id="jPuo404J30Q0AHn1eAiG-122" value="&amp;nbsp; &amp;nbsp; &amp;nbsp;&amp;nbsp;&lt;span style=&quot;text-align: center;&quot;&gt;sent_at&lt;/span&gt;" style="text;strokeColor=none;fillColor=none;align=left;verticalAlign=middle;spacingLeft=4;spacingRight=4;overflow=hidden;points=[[0,0.5],[1,0.5]];portConstraint=eastwest;rotatable=0;whiteSpace=wrap;html=1;" vertex="1" parent="jPuo404J30Q0AHn1eAiG-113">
          <mxGeometry y="240" width="180" height="30" as="geometry" />
        </mxCell>
        <mxCell id="jPuo404J30Q0AHn1eAiG-132" value="&lt;span style=&quot;font-size: 14px; font-weight: 700;&quot;&gt;fraud_checks&lt;/span&gt;" style="swimlane;fontStyle=0;childLayout=stackLayout;horizontal=1;startSize=30;horizontalStack=0;resizeParent=1;resizeParentMax=0;resizeLast=0;collapsible=1;marginBottom=0;whiteSpace=wrap;html=1;" vertex="1" parent="1">
          <mxGeometry x="300" y="665" width="180" height="180" as="geometry" />
        </mxCell>
        <mxCell id="jPuo404J30Q0AHn1eAiG-133" value="PK |&amp;nbsp;&lt;span style=&quot;text-align: center;&quot;&gt;fraud_check_id&lt;/span&gt;" style="text;strokeColor=none;fillColor=none;align=left;verticalAlign=middle;spacingLeft=4;spacingRight=4;overflow=hidden;points=[[0,0.5],[1,0.5]];portConstraint=eastwest;rotatable=0;whiteSpace=wrap;html=1;" vertex="1" parent="jPuo404J30Q0AHn1eAiG-132">
          <mxGeometry y="30" width="180" height="30" as="geometry" />
        </mxCell>
        <mxCell id="jPuo404J30Q0AHn1eAiG-134" value="&lt;div style=&quot;text-align: center;&quot;&gt;&lt;span style=&quot;background-color: initial;&quot;&gt;FK |&amp;nbsp;&lt;/span&gt;&lt;span style=&quot;background-color: initial;&quot;&gt;transaction_id&lt;/span&gt;&lt;/div&gt;" style="text;strokeColor=none;fillColor=none;align=left;verticalAlign=middle;spacingLeft=4;spacingRight=4;overflow=hidden;points=[[0,0.5],[1,0.5]];portConstraint=eastwest;rotatable=0;whiteSpace=wrap;html=1;" vertex="1" parent="jPuo404J30Q0AHn1eAiG-132">
          <mxGeometry y="60" width="180" height="30" as="geometry" />
        </mxCell>
        <mxCell id="jPuo404J30Q0AHn1eAiG-136" value="&amp;nbsp; &amp;nbsp; &amp;nbsp;&amp;nbsp;&lt;span style=&quot;text-align: center;&quot;&gt;score&lt;/span&gt;" style="text;strokeColor=none;fillColor=none;align=left;verticalAlign=middle;spacingLeft=4;spacingRight=4;overflow=hidden;points=[[0,0.5],[1,0.5]];portConstraint=eastwest;rotatable=0;whiteSpace=wrap;html=1;" vertex="1" parent="jPuo404J30Q0AHn1eAiG-132">
          <mxGeometry y="90" width="180" height="30" as="geometry" />
        </mxCell>
        <mxCell id="jPuo404J30Q0AHn1eAiG-137" value="&amp;nbsp; &amp;nbsp; &amp;nbsp;&amp;nbsp;&lt;span style=&quot;text-align: center;&quot;&gt;decision&lt;/span&gt;" style="text;strokeColor=none;fillColor=none;align=left;verticalAlign=middle;spacingLeft=4;spacingRight=4;overflow=hidden;points=[[0,0.5],[1,0.5]];portConstraint=eastwest;rotatable=0;whiteSpace=wrap;html=1;" vertex="1" parent="jPuo404J30Q0AHn1eAiG-132">
          <mxGeometry y="120" width="180" height="30" as="geometry" />
        </mxCell>
        <mxCell id="jPuo404J30Q0AHn1eAiG-138" value="&lt;span style=&quot;text-align: center;&quot;&gt;&amp;nbsp; &amp;nbsp; &amp;nbsp;&amp;nbsp;&lt;/span&gt;&lt;span style=&quot;text-align: center;&quot;&gt;checked_at&lt;/span&gt;" style="text;strokeColor=none;fillColor=none;align=left;verticalAlign=middle;spacingLeft=4;spacingRight=4;overflow=hidden;points=[[0,0.5],[1,0.5]];portConstraint=eastwest;rotatable=0;whiteSpace=wrap;html=1;" vertex="1" parent="jPuo404J30Q0AHn1eAiG-132">
          <mxGeometry y="150" width="180" height="30" as="geometry" />
        </mxCell>
        <mxCell id="jPuo404J30Q0AHn1eAiG-102" value="&lt;span style=&quot;font-size: 14px; font-weight: 700;&quot;&gt;payment_integrations&lt;/span&gt;" style="swimlane;fontStyle=0;childLayout=stackLayout;horizontal=1;startSize=30;horizontalStack=0;resizeParent=1;resizeParentMax=0;resizeLast=0;collapsible=1;marginBottom=0;whiteSpace=wrap;html=1;" vertex="1" parent="1">
          <mxGeometry x="80" y="823" width="180" height="300" as="geometry" />
        </mxCell>
        <mxCell id="jPuo404J30Q0AHn1eAiG-103" value="PK |&amp;nbsp;&lt;span style=&quot;text-align: center;&quot;&gt;payment_integration_id&lt;/span&gt;" style="text;strokeColor=none;fillColor=none;align=left;verticalAlign=middle;spacingLeft=4;spacingRight=4;overflow=hidden;points=[[0,0.5],[1,0.5]];portConstraint=eastwest;rotatable=0;whiteSpace=wrap;html=1;" vertex="1" parent="jPuo404J30Q0AHn1eAiG-102">
          <mxGeometry y="30" width="180" height="30" as="geometry" />
        </mxCell>
        <mxCell id="jPuo404J30Q0AHn1eAiG-104" value="&lt;div style=&quot;text-align: center;&quot;&gt;&lt;span style=&quot;background-color: initial;&quot;&gt;FK |&amp;nbsp;&lt;/span&gt;&lt;span style=&quot;background-color: initial;&quot;&gt;transaction_id&lt;/span&gt;&lt;/div&gt;" style="text;strokeColor=none;fillColor=none;align=left;verticalAlign=middle;spacingLeft=4;spacingRight=4;overflow=hidden;points=[[0,0.5],[1,0.5]];portConstraint=eastwest;rotatable=0;whiteSpace=wrap;html=1;" vertex="1" parent="jPuo404J30Q0AHn1eAiG-102">
          <mxGeometry y="60" width="180" height="30" as="geometry" />
        </mxCell>
        <mxCell id="jPuo404J30Q0AHn1eAiG-105" value="&lt;span style=&quot;text-align: center;&quot;&gt;&amp;nbsp; &amp;nbsp; &amp;nbsp; external_reference&lt;/span&gt;" style="text;strokeColor=none;fillColor=none;align=left;verticalAlign=middle;spacingLeft=4;spacingRight=4;overflow=hidden;points=[[0,0.5],[1,0.5]];portConstraint=eastwest;rotatable=0;whiteSpace=wrap;html=1;" vertex="1" parent="jPuo404J30Q0AHn1eAiG-102">
          <mxGeometry y="90" width="180" height="30" as="geometry" />
        </mxCell>
        <mxCell id="jPuo404J30Q0AHn1eAiG-106" value="&amp;nbsp; &amp;nbsp; &amp;nbsp;&amp;nbsp;&lt;span style=&quot;text-align: center;&quot;&gt;request_data (JSON)&lt;/span&gt;" style="text;strokeColor=none;fillColor=none;align=left;verticalAlign=middle;spacingLeft=4;spacingRight=4;overflow=hidden;points=[[0,0.5],[1,0.5]];portConstraint=eastwest;rotatable=0;whiteSpace=wrap;html=1;" vertex="1" parent="jPuo404J30Q0AHn1eAiG-102">
          <mxGeometry y="120" width="180" height="30" as="geometry" />
        </mxCell>
        <mxCell id="jPuo404J30Q0AHn1eAiG-107" value="&amp;nbsp; &amp;nbsp; &amp;nbsp;&amp;nbsp;&lt;span style=&quot;text-align: center;&quot;&gt;response_data (JSON)&lt;/span&gt;" style="text;strokeColor=none;fillColor=none;align=left;verticalAlign=middle;spacingLeft=4;spacingRight=4;overflow=hidden;points=[[0,0.5],[1,0.5]];portConstraint=eastwest;rotatable=0;whiteSpace=wrap;html=1;" vertex="1" parent="jPuo404J30Q0AHn1eAiG-102">
          <mxGeometry y="150" width="180" height="30" as="geometry" />
        </mxCell>
        <mxCell id="jPuo404J30Q0AHn1eAiG-108" value="&lt;span style=&quot;text-align: center;&quot;&gt;&amp;nbsp; &amp;nbsp; &amp;nbsp;&amp;nbsp;&lt;/span&gt;&lt;span style=&quot;text-align: center;&quot;&gt;status&lt;/span&gt;&lt;span style=&quot;text-align: center;&quot;&gt;&amp;nbsp;(enum)&lt;/span&gt;" style="text;strokeColor=none;fillColor=none;align=left;verticalAlign=middle;spacingLeft=4;spacingRight=4;overflow=hidden;points=[[0,0.5],[1,0.5]];portConstraint=eastwest;rotatable=0;whiteSpace=wrap;html=1;" vertex="1" parent="jPuo404J30Q0AHn1eAiG-102">
          <mxGeometry y="180" width="180" height="30" as="geometry" />
        </mxCell>
        <mxCell id="jPuo404J30Q0AHn1eAiG-109" value="&amp;nbsp; &amp;nbsp; &amp;nbsp;&amp;nbsp;&lt;span style=&quot;text-align: center;&quot;&gt;note&lt;/span&gt;" style="text;strokeColor=none;fillColor=none;align=left;verticalAlign=middle;spacingLeft=4;spacingRight=4;overflow=hidden;points=[[0,0.5],[1,0.5]];portConstraint=eastwest;rotatable=0;whiteSpace=wrap;html=1;" vertex="1" parent="jPuo404J30Q0AHn1eAiG-102">
          <mxGeometry y="210" width="180" height="30" as="geometry" />
        </mxCell>
        <mxCell id="jPuo404J30Q0AHn1eAiG-110" value="&amp;nbsp; &amp;nbsp; &amp;nbsp;&amp;nbsp;&lt;span style=&quot;text-align: center;&quot;&gt;created_at&lt;/span&gt;" style="text;strokeColor=none;fillColor=none;align=left;verticalAlign=middle;spacingLeft=4;spacingRight=4;overflow=hidden;points=[[0,0.5],[1,0.5]];portConstraint=eastwest;rotatable=0;whiteSpace=wrap;html=1;" vertex="1" parent="jPuo404J30Q0AHn1eAiG-102">
          <mxGeometry y="240" width="180" height="30" as="geometry" />
        </mxCell>
        <mxCell id="jPuo404J30Q0AHn1eAiG-112" value="&lt;span style=&quot;text-align: center;&quot;&gt;&amp;nbsp; &amp;nbsp; &amp;nbsp;&amp;nbsp;&lt;/span&gt;&lt;span style=&quot;text-align: center;&quot;&gt;updated_at&lt;/span&gt;" style="text;strokeColor=none;fillColor=none;align=left;verticalAlign=middle;spacingLeft=4;spacingRight=4;overflow=hidden;points=[[0,0.5],[1,0.5]];portConstraint=eastwest;rotatable=0;whiteSpace=wrap;html=1;" vertex="1" parent="jPuo404J30Q0AHn1eAiG-102">
          <mxGeometry y="270" width="180" height="30" as="geometry" />
        </mxCell>
      </root>
    </mxGraphModel>
  </diagram>
</mxfile>
